<svg width="512" height="512" viewBox="0 0 512 512" fill="none" xmlns="http://www.w3.org/2000/svg" role="img" aria-labelledby="title desc">
  <title id="title">Parqo team logo</title>
  <desc id="desc">A polished Parqo team logo with a dark rounded square, connected scheduling nodes, a mint route slash, and a subtle team underline.</desc>
  <defs>
    <linearGradient id="bg" x1="60" y1="36" x2="452" y2="476" gradientUnits="userSpaceOnUse">
      <stop stop-color="#17201D"/>
      <stop offset="1" stop-color="#050707"/>
    </linearGradient>
    <linearGradient id="mint" x1="183" y1="397" x2="329" y2="115" gradientUnits="userSpaceOnUse">
      <stop stop-color="#62FFD6"/>
      <stop offset="1" stop-color="#1FFFC0"/>
    </linearGradient>
    <filter id="shadow" x="60" y="74" width="392" height="360" filterUnits="userSpaceOnUse" color-interpolation-filters="sRGB">
      <feDropShadow dx="0" dy="18" stdDeviation="18" flood-color="#000000" flood-opacity="0.35"/>
    </filter>
  </defs>
  <rect width="512" height="512" rx="104" fill="url(#bg)"/>
  <path d="M96 400C156 438 354 438 416 400" stroke="#1FFFC0" stroke-opacity="0.18" stroke-width="64" stroke-linecap="round"/>
  <g filter="url(#shadow)">
    <path d="M154 166H358M154 166V346M358 166V346M154 346H358" stroke="#596560" stroke-width="22" stroke-linecap="round"/>
    <circle cx="154" cy="166" r="42" fill="#F1F4ED"/>
    <circle cx="358" cy="166" r="42" fill="#F1F4ED"/>
    <circle cx="154" cy="346" r="42" fill="#F1F4ED"/>
    <circle cx="358" cy="346" r="42" fill="#F1F4ED"/>
    <path d="M311 114L201 398" stroke="url(#mint)" stroke-width="50" stroke-linecap="round"/>
    <path d="M233 160H177C132 160 102 190 102 234V278C102 322 132 352 177 352H233" stroke="#F1F4ED" stroke-width="30" stroke-linecap="round" stroke-linejoin="round"/>
    <path d="M279 160H335C380 160 410 190 410 234V278C410 322 380 352 335 352H279" stroke="#F1F4ED" stroke-width="30" stroke-linecap="round" stroke-linejoin="round"/>
    <path d="M130 420H382" stroke="#1FFFC0" stroke-width="12" stroke-linecap="round"/>
    <path d="M178 420H334" stroke="#F1F4ED" stroke-opacity="0.85" stroke-width="5" stroke-linecap="round"/>
  </g>
</svg>
